<svg width="85" height="114" viewBox="0 0 85 114" fill="none" xmlns="http://www.w3.org/2000/svg">
<path d="M13.6879 113.3C11.3879 113.3 8.63789 111.4 5.43789 107.6C2.23789 103.7 0.637891 100.55 0.637891 98.15C0.637891 95.75 1.83789 90.8 4.23789 83.3C11.6379 60.3 15.5879 40.15 16.0879 22.85C12.6879 19.25 10.9879 16.4 10.9879 14.3C10.9879 11 14.8879 7.9 22.6879 5C30.5879 2 38.0879 0.499994 45.1879 0.499994C57.1879 0.499994 66.6379 3.29999 73.5379 8.89999C80.5379 14.5 84.0379 21.65 84.0379 30.35C84.0379 41.45 78.5879 51.5 67.6879 60.5C56.8879 69.5 43.2379 75.65 26.7379 78.95C22.0379 95.85 18.9379 105.8 17.4379 108.8C16.0379 111.8 14.7879 113.3 13.6879 113.3ZM62.7379 30.8C62.7379 27.6 61.5879 25 59.2879 23C56.9879 20.9 53.8879 19.85 49.9879 19.85C46.0879 19.85 40.6879 21.7 33.7879 25.4C35.7879 28.9 36.7879 32.05 36.7879 34.85C36.7879 40.35 35.3379 48.5 32.4379 59.3C41.4379 55.7 48.7379 51.4 54.3379 46.4C59.9379 41.3 62.7379 36.1 62.7379 30.8Z" fill="url(#paint0_linear_1_14)"/>
<defs>
<linearGradient id="paint0_linear_1_14" x1="51.1127" y1="-11.7671" x2="-33.4287" y2="128.391" gradientUnits="userSpaceOnUse">
<stop stop-color="#7EB2FF"/>
<stop offset="0.411458" stop-color="#4D90F5"/>
<stop offset="1" stop-color="#00327D"/>
</linearGradient>
</defs>
</svg>
